HIERARCHY
ROOT Hips
{
	OFFSET 0.000000 0.000000 0.000000 
	CHANNELS 6 Xposition Yposition Zposition Zrotation Yrotation Xrotation
	JOINT LeftUpLeg
	{
		OFFSET 1.363060 -1.794630 0.839290 
		CHANNELS 3 Zrotation Yrotation Xrotation
		JOINT LeftLeg
		{
			OFFSET 2.448110 -6.726130 0.000000 
			CHANNELS 3 Zrotation Yrotation Xrotation
			JOINT LeftFoot
			{
				OFFSET 2.562200 -7.039590 0.000000 
				CHANNELS 3 Zrotation Yrotation Xrotation
				JOINT LeftToeBase
				{
					OFFSET 0.157640 -0.433110 2.322550 
					CHANNELS 3 Zrotation Yrotation Xrotation
					End Site
					{
						OFFSET 0.000000 0.000000 0.000000 
					}
				}
			}
		}
	}
	JOINT RightUpLeg
	{
		OFFSET -1.305520 -1.794630 0.839290 
		CHANNELS 3 Zrotation Yrotation Xrotation
		JOINT RightLeg
		{
			OFFSET -2.542530 -6.985550 0.000000 
			CHANNELS 3 Zrotation Yrotation Xrotation
			JOINT RightFoot
			{
				OFFSET -2.568260 -7.056230 0.000000 
				CHANNELS 3 Zrotation Yrotation Xrotation
				JOINT RightToeBase
				{
					OFFSET -0.164730 -0.452590 2.363150 
					CHANNELS 3 Zrotation Yrotation Xrotation
					End Site
					{
						OFFSET 0.000000 0.000000 0.000000 
					}
				}
			}
		}
	}
	JOINT Spine
	{
		OFFSET 0.028270 2.035590 -0.193380 
		CHANNELS 3 Zrotation Yrotation Xrotation
		JOINT Spine1
		{
			OFFSET 0.056720 2.048850 -0.042750 
			CHANNELS 3 Zrotation Yrotation Xrotation
			JOINT Neck1
			{
				OFFSET -0.054170 1.746240 0.172020 
				CHANNELS 3 Zrotation Yrotation Xrotation
				JOINT Head
				{
					OFFSET 0.104070 1.761360 -0.123970 
					CHANNELS 3 Zrotation Yrotation Xrotation
					End Site
					{
						OFFSET 0.000000 0.000000 0.000000 
					}
				}
			}
			JOINT LeftArm
			{
				OFFSET 3.362410 1.200890 -0.311210 
				CHANNELS 3 Zrotation Yrotation Xrotation
				JOINT LeftForeArm
				{
					OFFSET 4.983000 -0.000000 -0.000000 
					CHANNELS 3 Zrotation Yrotation Xrotation
					JOINT LeftHand
					{
						OFFSET 3.483560 -0.000000 -0.000000 
						CHANNELS 3 Zrotation Yrotation Xrotation
						JOINT LeftHandIndex1
						{
							OFFSET 0.715260 -0.000000 -0.000000 
							CHANNELS 3 Zrotation Yrotation Xrotation
							End Site
							{
								OFFSET 0.000000 0.000000 0.000000 
							}
						}
					}
				}
			}
			JOINT RightArm
			{
				OFFSET -3.136600 1.374050 -0.404650 
				CHANNELS 3 Zrotation Yrotation Xrotation
				JOINT RightForeArm
				{
					OFFSET -5.241900 -0.000000 -0.000000 
					CHANNELS 3 Zrotation Yrotation Xrotation
					JOINT RightHand
					{
						OFFSET -3.444170 -0.000000 -0.000000 
						CHANNELS 3 Zrotation Yrotation Xrotation
						JOINT RightHandIndex1
						{
							OFFSET -0.622530 -0.000000 -0.000000 
							CHANNELS 3 Zrotation Yrotation Xrotation
							End Site
							{
								OFFSET 0.000000 0.000000 0.000000 
							}
						}
					}
				}
			}
		}
	}
}
MOTION
Frames: 6
Frame Time: 0.041667
-3.986109 17.957062 -7.490219 -4.937885 5.304093 8.558467 -7.583901 -3.502621 -12.640159 0.440304 7.570213 22.729567 -0.034676 2.133328 -7.925227 0.528400 -4.658000 -12.935800 21.236160 4.991046 -11.051487 -1.482495 -7.702678 20.754556 0.054399 -3.347004 -9.246826 -0.044700 -1.364300 3.751900 7.597160 -0.120847 1.502587 4.357512 0.051881 0.959289 2.371433 -4.083290 14.070333 -1.011400 -1.875900 9.742900 -91.811397 -1.054882 21.027480 15.900087 -27.383652 -3.058896 1.011775 1.160167 -4.382004 -7.125000 0.000000 0.000000 86.182509 2.695180 9.231931 -12.755308 22.533130 -1.987203 -0.094177 0.379258 -6.902716 7.125000 0.000000 0.000000 
-3.996514 17.958945 -7.490119 -4.831644 5.452039 8.645416 -7.624373 -3.650253 -12.667512 0.429937 7.564210 22.694105 -0.047343 2.192765 -7.859042 0.583900 -4.892700 -13.602900 21.187998 4.999365 -11.146169 -1.488887 -7.722245 20.818029 0.046487 -3.341782 -9.437828 -0.105600 -2.095500 5.769600 7.363187 -0.090799 1.194697 4.302681 0.059599 0.802769 2.374685 -4.060722 14.062656 -1.018400 -1.858800 9.709100 -91.655307 -0.845972 21.186841 15.891464 -27.381800 -3.078512 1.016325 1.124203 -4.805388 -7.125000 0.000000 0.000000 86.288242 2.438992 9.362215 -12.850346 22.675376 -2.022841 -0.099599 0.371088 -6.999616 7.125000 0.000000 0.000000 
-4.004442 17.962215 -7.490615 -4.737844 5.553522 8.722013 -7.666690 -3.743617 -12.719505 0.429878 7.578728 22.719007 -0.047524 2.201318 -7.871804 0.619700 -5.037800 -14.016400 21.138737 4.984491 -11.217902 -1.488832 -7.722485 20.822568 0.033449 -3.272620 -9.553086 -0.161500 -2.589300 7.137400 7.071784 -0.018495 0.870349 4.201960 0.087402 0.631630 2.435992 -4.063337 14.039220 -1.011800 -1.846700 9.663600 -91.438751 -0.585476 21.476202 16.009337 -27.549966 -3.132167 1.012352 1.127567 -5.050542 -7.125000 0.000000 0.000000 86.422854 2.197045 9.421600 -12.924539 22.782809 -2.048333 -0.103772 0.367849 -7.173788 7.125000 0.000000 0.000000 
-4.011180 17.962017 -7.490417 -4.740423 5.580748 8.695239 -7.627437 -3.767036 -12.705686 0.434751 7.586713 22.741827 -0.033149 2.121091 -7.894880 0.561800 -4.800900 -13.341500 21.179688 4.974915 -11.210062 -1.491023 -7.727570 20.837526 0.041646 -3.320019 -9.494124 -0.152400 -2.515200 6.931700 6.912797 0.068670 0.807421 4.114748 0.129487 0.561696 2.381816 -4.041270 14.069140 -1.044200 -1.833100 9.662100 -91.337880 -0.536682 21.565785 16.132285 -27.722399 -3.173871 0.999635 1.157557 -4.828979 -7.125000 0.000000 0.000000 86.474259 2.095030 9.592591 -12.988210 22.874168 -2.068967 -0.109049 0.366836 -7.469609 7.125000 0.000000 0.000000 
-4.016730 17.956864 -7.487939 -4.732547 5.560364 8.610890 -7.615380 -3.724877 -12.664624 0.444158 7.597342 22.785414 -0.020802 2.061515 -7.951214 0.521300 -4.627200 -12.848300 21.203469 4.973650 -11.126391 -1.489275 -7.725647 20.826927 0.052340 -3.390181 -9.438895 -0.147100 -2.472000 6.812000 6.827092 0.142874 1.016038 4.085697 0.171591 0.619725 2.299541 -4.001377 14.206677 -1.081300 -1.813400 9.735100 -91.307053 -0.635905 21.721080 16.263754 -27.903521 -3.212154 0.990736 1.193925 -4.664904 -7.125000 0.000000 0.000000 86.444754 2.095828 9.969325 -13.088422 23.023483 -2.105562 -0.117949 0.360049 -7.896768 7.125000 0.000000 0.000000 
-4.021882 17.951810 -7.484669 -4.779269 5.590171 8.569241 -7.551421 -3.664431 -12.686346 0.453980 7.611291 22.829550 -0.015741 2.035394 -7.966051 0.542900 -4.720800 -13.114000 21.284076 4.973695 -11.065312 -1.485039 -7.714406 20.792961 0.056727 -3.432592 -9.461978 -0.147800 -2.477900 6.828300 6.799763 0.206091 1.127688 4.039981 0.205600 0.667507 2.205180 -3.962268 14.342359 -1.119600 -1.796300 9.799400 -91.268880 -0.639020 22.032233 16.317584 -27.977525 -3.230341 1.001420 1.197259 -5.123889 -7.125000 0.000000 0.000000 86.373463 2.056044 10.439536 -13.213010 23.207772 -2.152277 -0.126544 0.350186 -8.440239 7.125000 0.000000 0.000000 
